# xmcd
#
# Track frame offsets: 
#        150
#        19012
#        45675
#        63269
#        92287
#        110887
#        132862
#        162562
#        176100
#        202950
#        221587
#        239325
#        261637
#
# Disc length: 3716 seconds
#
# Revision: 2
# Processed by: cddbd v1.5.2PL0 Copyright (c) Steve Scherf et al.
# Submitted via: ExactAudioCopyFreeDBPlugin 1.0
#
DISCID=bd0e820d
DTITLE=Guy Davis - Kokomo Kidd
DYEAR=2015
DGENRE=Blues
TTITLE0=Kokomo Kidd
TTITLE1=Wish I Hadn't Stayed Away So Long
TTITLE2=Taking Just a Little Bit of Time
TTITLE3=She Just Wants To Be Loved
TTITLE4=Like Sonny Did
TTITLE5=Lay Lady Lay
TTITLE6=Little Red Rooster
TTITLE7=Maybe I'll Go
TTITLE8=Blackberry Kisses
TTITLE9=Have You Ever Loved Two Women?
TTITLE10=Cool Drink Of Water
TTITLE11=Bumblebee Blues
TTITLE12=Guy Davis - Wear Your Love
EXTD=YEAR: 2015
EXTT0=
EXTT1=
EXTT2=
EXTT3=
EXTT4=
EXTT5=
EXTT6=
EXTT7=
EXTT8=
EXTT9=
EXTT10=
EXTT11=
EXTT12=
PLAYORDER=
